<svg xmlns="http://www.w3.org/2000/svg" enable-background="new 0 0 47.5 47.5" viewBox="0 0 47.5 47.5"><defs><clipPath id="a"><path d="M0 38h38V0H0v38Z"/></clipPath></defs><g clip-path="url(#a)" transform="matrix(1.25 0 0 -1.25 0 47.5)"><path fill="#553788" d="M0 0a4 4 0 0 0-4-4h-28a4 4 0 0 0-4 4v28a4 4 0 0 0 4 4h28a4 4 0 0 0 4-4V0Z" transform="translate(37 5)"/><path fill="#744eaa" d="M0 0h-12.756c-4.687-1.656.803-8.995-3.502-8.469-7.159.875-7.679-6.086-10.742-4.969-1.192.436-3.257 2.491-5 .991V-32a4 4 0 0 1 4-4h1.624c1.469 1.279.927 5.622 1.709 6.75 2.834 4.084 3.695 7.482 7.901 7.188 7.125-.5 8.453 4.853 10.704 7.187C-3.813-12.541 0-16.417 4-14.667V-4a4 4 0 0 1-4 4" transform="translate(33 37)"/><path fill="#292f33" d="M0 0v2.966c-.77.84-1.917 1.784-2.583 1.7C-3.859 4.505-4.625 3.5-5.5 2.813c-.875-.688-2.979-.272-4.667.853-1.687 1.125-3.998.106-5.127-.466-1.873-.95-2.498 1.883-4.373 3.133S-24.375 3.5-25.5 2.75s-2.463 1.18-3.275 1.742c-.813.563-1.892.487-3.392-.826-1.287-1.126-1.795-.895-3.833-1.545V0a4 4 0 0 1 4-4h28a4 4 0 0 1 4 4" transform="translate(37 5)"/><path fill="#aa8dd8" d="M0 0a1.167 1.167 0 1 0-2.334 0A1.167 1.167 0 0 0 0 0" transform="translate(8.334 21.333)"/><path fill="#aa8dd8" d="M0 0a1.094 1.094 0 1 0-2.189 0A1.094 1.094 0 0 0 0 0" transform="translate(16.938 25.969)"/><path fill="#aa8dd8" d="M0 0a1.312 1.312 0 1 0-2.624 0A1.312 1.312 0 0 0 0 0" transform="translate(24.313 31.688)"/><path fill="#aa8dd8" d="M0 0a.78.78 0 1 0-1.562 0A.78.78 0 0 0 0 0" transform="translate(26.188 28.281)"/><path fill="#aa8dd8" d="M0 0a1 1 0 1 0-2 0 1 1 0 1 0 2 0" transform="translate(20.75 17.25)"/><path fill="#aa8dd8" d="M0 0a.937.937 0 1 0-1.874 0A.937.937 0 0 0 0 0" transform="translate(32.938 16.578)"/><path fill="#aa8dd8" d="M0 0a1.156 1.156 0 1 0-2.312 0A1.156 1.156 0 0 0 0 0" transform="translate(33.688 26.094)"/><path fill="#cbb7ea" d="M0 0a.656.656 0 1 0-1.311 0A.656.656 0 0 0 0 0" transform="translate(23.281 13.273)"/><path fill="#cbb7ea" d="M0 0a.812.812 0 1 0-1.624 0A.812.812 0 0 0 0 0" transform="translate(13.563 34.438)"/><path fill="#cbb7ea" d="M0 0a.672.672 0 1 0-1.344 0A.672.672 0 0 0 0 0" transform="translate(6.606 31.062)"/><path fill="#cbb7ea" d="M0 0a.811.811 0 1 0-1.625 0A.812.812 0 1 0 0 0" transform="translate(29.719 10.992)"/><path fill="#cbb7ea" d="M0 0a.934.934 0 1 0-1.868 0A.934.934 0 0 0 0 0" transform="translate(7.868 11.503)"/><path fill="#cbb7ea" d="M0 0a1.469 1.469 0 1 0-2.938 0A1.469 1.469 0 0 0 0 0" transform="translate(12 18.219)"/><path fill="#cbb7ea" d="M0 0a1.675 1.675 0 1 0-3.35 0A1.675 1.675 0 0 0 0 0" transform="translate(21.35 22.2)"/><path fill="#cbb7ea" d="M0 0a.72.72 0 1 0-1.438 0A.72.72 0 0 0 0 0" transform="translate(29.688 32.531)"/><path fill="#cbb7ea" d="M0 0a1 1 0 1 0-2 0 1 1 0 0 0 2 0" transform="translate(35.313 34)"/><path fill="#f5f8fa" d="M0 0a.896.896 0 1 0-1.792 0A.896.896 0 0 0 0 0" transform="translate(12.334 29.438)"/><path fill="#f5f8fa" d="M0 0a.78.78 0 1 0-1.562 0A.78.78 0 0 0 0 0" transform="translate(35.313 21.344)"/><path fill="#f5f8fa" d="M0 0a.687.687 0 1 0-1.374 0A.687.687 0 0 0 0 0" transform="translate(26.688 23.469)"/><path fill="#f5f8fa" d="M0 0a.594.594 0 1 0-1.188 0A.594.594 0 0 0 0 0" transform="translate(13.531 22.281)"/><path fill="#f5f8fa" d="M0 0a1.156 1.156 0 1 0-2.312 0A1.156 1.156 0 0 0 0 0" transform="translate(23.75 25.76)"/><path fill="#f5f8fa" d="M0 0a.97.97 0 1 0-1.938 0A.97.97 0 0 0 0 0" transform="translate(29.875 28.844)"/><path fill="#f5f8fa" d="M0 0a1.336 1.336 0 1 0-2.672 0A1.336 1.336 0 0 0 0 0" transform="translate(17.234 18.914)"/><path fill="#f5f8fa" d="M0 0a.88.88 0 1 0-1.76.001A.88.88 0 0 0 0 0" transform="translate(3.633 12.871)"/><path fill="#f5f8fa" d="M0 0a.648.648 0 1 0-1.297.001A.648.648 0 0 0 0 0" transform="translate(7 15.92)"/><path fill="#f5f8fa" d="M0 0a.811.811 0 1 0-1.625 0A.812.812 0 1 0 0 0" transform="translate(33.156 31.25)"/></g></svg>